# xmcd
# Track frame offsets:
# 150
# 13680
# 26417
# 47642
# 66532
# 82842
# 99782
# 117520
# 139847
# 157282
# 169940
# 190112
# 209090
# 227390
# 240655
# 259077
# 274427
# 294730
# 315062
# 328992
#
# Disc length: 4573 seconds
# Revision: 0
# Processed by: cddbd v1.5PL3 Copyright (c) Steve Scherf et al.
# Submitted via: VisiTrax 2.9.9.202 - For more info visit www.synapsa.com
#
DISCID=2311db14
DTITLE=Dwight Yoakam - Stone Alone Live
DYEAR=1998
DGENRE=
TTITLE0=Streets Of Bakersfield w/ Buck Owens
TTITLE1=Tiger By The Tail w/ Buck Owens
TTITLE2=Lonsom Prison Blues w/ Buck Owens
TTITLE3=Maybe w/ Buck Owens
TTITLE4=Guitars,Cadillacs and Hillbilly Music
TTITLE5=Down The Road
TTITLE6=Please,Please,Baby
TTITLE7=Rockin On Rute23
TTITLE8=Walkin After Midnight
TTITLE9=I`ll Be Gone
TTITLE10=Honky Tonk Man
TTITLE11=My Bucket
TTITLE12=Little Ways
TTITLE13=Sweetheart Of Mine
TTITLE14=Guitars,Cadillacs and Hillbilly Music
TTITLE15=Down The Road
TTITLE16=Heart of Mine
TTITLE17=1000 Miles
TTITLE18=I`ll Be Gone
TTITLE19=Honky Tonk Man
EXTD=
EXTT0=
EXTT1=
EXTT2=
EXTT3=
EXTT4=
EXTT5=
EXTT6=
EXTT7=
EXTT8=
EXTT9=
EXTT10=
EXTT11=
EXTT12=
EXTT13=
EXTT14=
EXTT15=
EXTT16=
EXTT17=
EXTT18=
EXTT19=
PLAYORDER=
